<?xml version="1.0" encoding="iso-8859-1"?>
<!-- Generator: Adobe Illustrator 19.0.0, SVG Export Plug-In . SVG Version: 6.00 Build 0)  -->
<svg version="1.1" id="Capa_1" xmlns="http://www.w3.org/2000/svg" xmlns:xlink="http://www.w3.org/1999/xlink" x="0px" y="0px"
	 viewBox="0 0 470 470" style="enable-background:new 0 0 470 470;" xml:space="preserve">
<g>
	<path fill = "#EF7625" d="M401.17,68.83C356.785,24.444,297.771,0,235,0S113.215,24.444,68.83,68.83C24.444,113.216,0,172.229,0,235
		s24.444,121.785,68.83,166.17C113.215,445.556,172.229,470,235,470s121.785-24.444,166.17-68.83
		C445.556,356.785,470,297.771,470,235S445.556,113.216,401.17,68.83z M235,455c-121.309,0-220-98.691-220-220
		c0-121.308,98.691-220,220-220s220,98.692,220,220C455,356.309,356.309,455,235,455z"/>
	<path fill = "#EF7625" d="M262.083,239.737l96.66-96.66c2.929-2.929,2.929-7.678,0-10.606l-21.213-21.213c-1.406-1.406-3.314-2.197-5.303-2.197
		s-3.897,0.79-5.303,2.197l-76.016,76.016c-2.929,2.929-2.929,7.678,0,10.606c2.929,2.929,7.678,2.929,10.606,0l70.712-70.713
		l10.607,10.607l-83.83,83.83c-3.971-7.088-10.988-12.243-19.267-13.687l-64.841-64.841c-2.929-2.929-7.678-2.929-10.606,0
		l-21.213,21.213c-2.929,2.929-2.929,7.678,0,10.606l64.841,64.841c0.54,3.094,1.596,6.012,3.08,8.661l-78.481,78.481
		c-2.929,2.929-2.929,7.678,0,10.606c1.464,1.464,3.384,2.197,5.303,2.197s3.839-0.732,5.303-2.197l78.481-78.481
		c3.967,2.223,8.535,3.496,13.397,3.496C248.548,262.5,259.831,252.65,262.083,239.737z M169.593,158.986l52.01,52.01
		c-4.439,2.487-8.12,6.168-10.607,10.607l-52.01-52.01L169.593,158.986z M235,247.5c-3.435,0-6.55-1.394-8.811-3.644
		c-2.295-2.306-3.689-5.421-3.689-8.856c0-6.893,5.607-12.5,12.5-12.5s12.5,5.607,12.5,12.5S241.893,247.5,235,247.5z"/>
	<path fill = "#EF7625" d="M242.5,97.5v-30c0-4.142-3.358-7.5-7.5-7.5s-7.5,3.358-7.5,7.5v30c0,4.142,3.358,7.5,7.5,7.5S242.5,101.642,242.5,97.5z"/>
	<path fill = "#EF7625" d="M410,235c0-4.142-3.358-7.5-7.5-7.5h-30c-4.142,0-7.5,3.358-7.5,7.5s3.358,7.5,7.5,7.5h30
		C406.642,242.5,410,239.142,410,235z"/>
	<path fill = "#EF7625" d="M227.5,372.5v30c0,4.142,3.358,7.5,7.5,7.5s7.5-3.358,7.5-7.5v-30c0-4.142-3.358-7.5-7.5-7.5S227.5,368.358,227.5,372.5z"
		/>
	<path fill = "#EF7625" d="M67.5,227.5c-4.142,0-7.5,3.358-7.5,7.5s3.358,7.5,7.5,7.5h30c4.142,0,7.5-3.358,7.5-7.5s-3.358-7.5-7.5-7.5H67.5z"/>
	<path fill = "#EF7625" d="M235,30C121.962,30,30,121.963,30,235c0,113.038,91.962,205,205,205c48.915,0,96.313-17.587,133.465-49.523
		c3.141-2.7,3.499-7.436,0.798-10.577s-7.436-3.498-10.577-0.798C324.255,408.7,280.329,425,235,425c-104.766,0-190-85.234-190-190
		S130.234,45,235,45s190,85.234,190,190c0,45.329-16.3,89.255-45.898,123.687c-2.7,3.141-2.343,7.876,0.798,10.577
		c3.143,2.7,7.877,2.342,10.577-0.798C422.413,331.313,440,283.915,440,235C440,121.963,348.038,30,235,30z"/>
</g>
<g>
</g>
<g>
</g>
<g>
</g>
<g>
</g>
<g>
</g>
<g>
</g>
<g>
</g>
<g>
</g>
<g>
</g>
<g>
</g>
<g>
</g>
<g>
</g>
<g>
</g>
<g>
</g>
<g>
</g>
</svg>
