<?xml version="1.0" encoding="iso-8859-1"?>
<!-- Generator: Adobe Illustrator 18.0.0, SVG Export Plug-In . SVG Version: 6.00 Build 0)  -->
<!DOCTYPE svg PUBLIC "-//W3C//DTD SVG 1.1//EN" "http://www.w3.org/Graphics/SVG/1.1/DTD/svg11.dtd">
<svg version="1.1" id="Capa_1" xmlns="http://www.w3.org/2000/svg" xmlns:xlink="http://www.w3.org/1999/xlink" x="0px" y="0px"
	 viewBox="0 0 416.979 416.979" style="enable-background:new 0 0 416.979 416.979;" xml:space="preserve">
<g>
	<path fill = "#EF7625" d="M258.353,110.662L232.909,0h-93.854v15h81.911l21.995,95.662h-56.615l4.555,65.396
		c-12.601-4.929-26.256-7.639-40.453-7.639c-53.537,0-99.521,38.198-109.34,90.827l-1.724,9.237
		c-0.929,4.98,0.396,10.071,3.633,13.968c1.808,2.177,4.102,3.811,6.648,4.851v55.01c-7.01,0.7-12.502,6.631-12.502,13.822
		c0,33.55,27.295,60.845,60.845,60.845l260.475-0.001l21.334-306.316H258.353z M363.735,125.662l-1.461,20.974h-95.65l-4.822-20.974
		H363.735z M246.41,125.662l4.822,20.974h-47.345l-1.46-20.974H246.41z M54.13,271.234l1.724-9.237
		c8.494-45.531,48.276-78.578,94.594-78.578c0.158,0,0.315,0.01,0.473,0.01l-4.215,5.497c-2.52,3.287-1.898,7.995,1.389,10.516
		c1.361,1.043,2.966,1.548,4.558,1.548c2.253,0,4.48-1.011,5.958-2.937l9.902-12.914c38.273,7.304,69.165,37.38,76.53,76.858
		l1.724,9.235c0.142,0.757-0.152,1.306-0.424,1.633c-0.271,0.326-0.757,0.716-1.527,0.716H56.081c-0.771,0-1.256-0.39-1.527-0.716
		C54.282,272.539,53.988,271.99,54.13,271.234z M237.735,307.912H64.665v-19.33h173.07V307.912z M64.665,322.912h173.07v19.33
		H64.665V322.912z M98.008,401.979c-24.908,0-45.241-19.968-45.832-44.737h196.543c-0.591,24.77-20.924,44.737-45.833,44.737H98.008
		z M344.49,401.979H242.825c12.797-11.163,20.907-27.569,20.907-45.844c0-6.667-4.722-12.248-10.996-13.584v-55.951
		c1.942-1.026,3.699-2.411,5.143-4.148c3.237-3.896,4.562-8.987,3.633-13.969l-1.724-9.235c-6.1-32.7-26.168-59.82-53.328-75.677
		l-1.527-21.934H361.23L344.49,401.979z"/>
	<path fill = "#EF7625" d="M101.018,219.545l13.499,7.5c1.154,0.642,2.403,0.945,3.636,0.945c2.636,0,5.192-1.392,6.563-3.858
		c2.012-3.621,0.708-8.187-2.913-10.198l-13.499-7.5c-3.624-2.014-8.188-0.708-10.198,2.913
		C96.093,212.968,97.396,217.533,101.018,219.545z"/>
	<path fill = "#EF7625" d="M177.436,231.501c1.174,0.671,2.452,0.989,3.714,0.989c2.604,0,5.135-1.357,6.519-3.78l6-10.5
		c2.056-3.596,0.806-8.178-2.791-10.232c-3.595-2.054-8.178-0.806-10.232,2.791l-6,10.5
		C172.589,224.864,173.839,229.446,177.436,231.501z"/>
	<path fill = "#EF7625" d="M328.148,187.49c-12.406,0-22.499,10.093-22.499,22.499s10.093,22.5,22.499,22.5s22.5-10.094,22.5-22.5
		S340.555,187.49,328.148,187.49z M328.148,217.489c-4.135,0-7.499-3.364-7.499-7.5c0-4.135,3.364-7.499,7.499-7.499
		c4.136,0,7.5,3.364,7.5,7.499C335.648,214.125,332.284,217.489,328.148,217.489z"/>
	<path fill = "#EF7625" d="M285.401,290.985c-10.339,0-18.75,8.411-18.75,18.749c0,10.339,8.411,18.75,18.75,18.75
		c10.338,0,18.749-8.411,18.749-18.75C304.15,299.396,295.739,290.985,285.401,290.985z M285.401,313.484
		c-2.067,0-3.75-1.683-3.75-3.75s1.683-3.749,3.75-3.749s3.749,1.682,3.749,3.749S287.469,313.484,285.401,313.484z"/>
</g>
<g>
</g>
<g>
</g>
<g>
</g>
<g>
</g>
<g>
</g>
<g>
</g>
<g>
</g>
<g>
</g>
<g>
</g>
<g>
</g>
<g>
</g>
<g>
</g>
<g>
</g>
<g>
</g>
<g>
</g>
</svg>
